<svg xmlns="http://www.w3.org/2000/svg" version="1.1"
    xmlns:xlink="http://www.w3.org/1999/xlink"
    xmlns:svgjs="http://svgjs.dev/svgjs" width="2000" height="1015" viewBox="0 0 2000 1015">
    <g transform="matrix(1,0,0,1,-1.2121212121212466,-0.8637365949385867)">
        <svg viewBox="0 0 396 201" data-background-color="#ffffff" preserveAspectRatio="xMidYMid meet" height="1015" width="2000"
            xmlns="http://www.w3.org/2000/svg"
            xmlns:xlink="http://www.w3.org/1999/xlink">
            <g id="tight-bounds" transform="matrix(1,0,0,1,0.2400000000000091,0.17104537495828254)">
                <svg viewBox="0 0 395.52 200.65790925008343" height="200.65790925008343" width="395.52">
                    <g>
                        <svg viewBox="0 0 395.52 200.65790925008343" height="200.65790925008343" width="395.52">
                            <g transform="matrix(1,0,0,1,0,148.1649322915581)">
                                <svg viewBox="0 0 395.52 52.49297695852535" height="52.49297695852535" width="395.52">
                                    <g id="textblocktransform">
                                        <svg viewBox="0 0 395.52 52.49297695852535" height="52.49297695852535" width="395.52" id="textblock">
                                            <g>
                                                <svg viewBox="0 0 395.52 52.49297695852535" height="52.49297695852535" width="395.52">
                                                    <g transform="matrix(1,0,0,1,0,0)">
                                                        <svg width="395.52" viewBox="3.9 -35.5 271.23 36" height="52.49297695852535" data-palette-color="#1f2d5a">
                                                            <path d="M9.85 0L5.1 0Q4.6 0 4.25-0.35 3.9-0.7 3.9-1.2L3.9-1.2 3.9-33.75Q3.9-34.3 4.25-34.65 4.6-35 5.1-35L5.1-35 18.5-35Q22.4-35 25.3-33.77 28.2-32.55 29.8-30.08 31.4-27.6 31.4-23.9L31.4-23.9Q31.4-20.15 29.8-17.73 28.2-15.3 25.3-14.1 22.4-12.9 18.5-12.9L18.5-12.9 11.05-12.9 11.05-1.2Q11.05-0.7 10.73-0.35 10.4 0 9.85 0L9.85 0ZM10.95-29.45L10.95-18.45 18.25-18.45Q21.15-18.45 22.7-19.83 24.25-21.2 24.25-23.9L24.25-23.9Q24.25-26.4 22.8-27.93 21.35-29.45 18.25-29.45L18.25-29.45 10.95-29.45ZM42.6 0L38.05 0Q37.55 0 37.2-0.35 36.85-0.7 36.85-1.2L36.85-1.2 36.85-33.75Q36.85-34.3 37.2-34.65 37.55-35 38.05-35L38.05-35 51-35Q57.05-35 60.55-32.2 64.05-29.4 64.05-24.05L64.05-24.05Q64.05-20.35 62.22-17.9 60.4-15.45 57.35-14.35L57.35-14.35 64.65-1.6Q64.8-1.3 64.8-1.05L64.8-1.05Q64.8-0.6 64.47-0.3 64.15 0 63.75 0L63.75 0 59.2 0Q58.35 0 57.9-0.45 57.45-0.9 57.2-1.35L57.2-1.35 50.75-13.2 43.8-13.2 43.8-1.2Q43.8-0.7 43.47-0.35 43.15 0 42.6 0L42.6 0ZM43.8-29.45L43.8-18.85 50.85-18.85Q53.9-18.85 55.4-20.23 56.9-21.6 56.9-24.1L56.9-24.1Q56.9-26.6 55.42-28.03 53.95-29.45 50.85-29.45L50.85-29.45 43.8-29.45ZM83.94 0.5L83.94 0.5Q79.5 0.5 76.3-0.98 73.09-2.45 71.3-5.53 69.5-8.6 69.34-13.2L69.34-13.2Q69.3-15.35 69.3-17.45 69.3-19.55 69.34-21.75L69.34-21.75Q69.5-26.3 71.34-29.35 73.19-32.4 76.42-33.95 79.64-35.5 83.94-35.5L83.94-35.5Q88.25-35.5 91.5-33.95 94.75-32.4 96.59-29.35 98.44-26.3 98.59-21.75L98.59-21.75Q98.69-19.55 98.69-17.45 98.69-15.35 98.59-13.2L98.59-13.2Q98.44-8.6 96.64-5.53 94.84-2.45 91.62-0.98 88.39 0.5 83.94 0.5ZM83.94-5.25L83.94-5.25Q87.19-5.25 89.25-7.18 91.3-9.1 91.44-13.45L91.44-13.45Q91.55-15.65 91.55-17.53 91.55-19.4 91.44-21.55L91.44-21.55Q91.34-24.45 90.37-26.28 89.39-28.1 87.75-28.93 86.09-29.75 83.94-29.75L83.94-29.75Q81.84-29.75 80.19-28.93 78.55-28.1 77.57-26.28 76.59-24.45 76.5-21.55L76.5-21.55Q76.44-19.4 76.44-17.53 76.44-15.65 76.5-13.45L76.5-13.45Q76.64-9.1 78.69-7.18 80.75-5.25 83.94-5.25ZM111.19 0L106.44 0Q105.94 0 105.59-0.35 105.24-0.7 105.24-1.2L105.24-1.2 105.24-33.75Q105.24-34.3 105.59-34.65 105.94-35 106.44-35L106.44-35 119.84-35Q123.74-35 126.64-33.77 129.54-32.55 131.14-30.08 132.74-27.6 132.74-23.9L132.74-23.9Q132.74-20.15 131.14-17.73 129.54-15.3 126.64-14.1 123.74-12.9 119.84-12.9L119.84-12.9 112.39-12.9 112.39-1.2Q112.39-0.7 112.07-0.35 111.74 0 111.19 0L111.19 0ZM112.29-29.45L112.29-18.45 119.59-18.45Q122.49-18.45 124.04-19.83 125.59-21.2 125.59-23.9L125.59-23.9Q125.59-26.4 124.14-27.93 122.69-29.45 119.59-29.45L119.59-29.45 112.29-29.45ZM143.79 0L139.39 0Q138.89 0 138.54-0.35 138.19-0.7 138.19-1.2L138.19-1.2 138.19-33.75Q138.19-34.3 138.54-34.65 138.89-35 139.39-35L139.39-35 161.09-35Q161.64-35 161.99-34.65 162.34-34.3 162.34-33.75L162.34-33.75 162.34-30.25Q162.34-29.7 161.99-29.38 161.64-29.05 161.09-29.05L161.09-29.05 145.04-29.05 145.04-19.55 160.09-19.55Q160.64-19.55 160.99-19.2 161.34-18.85 161.34-18.3L161.34-18.3 161.34-14.8Q161.34-14.3 160.99-13.95 160.64-13.6 160.09-13.6L160.09-13.6 145.04-13.6 145.04-1.2Q145.04-0.7 144.69-0.35 144.34 0 143.79 0L143.79 0ZM181.69 0.5L181.69 0.5Q177.24 0.5 174.04-0.98 170.84-2.45 169.04-5.53 167.24-8.6 167.09-13.2L167.09-13.2Q167.04-15.35 167.04-17.45 167.04-19.55 167.09-21.75L167.09-21.75Q167.24-26.3 169.09-29.35 170.94-32.4 174.16-33.95 177.39-35.5 181.69-35.5L181.69-35.5Q185.99-35.5 189.24-33.95 192.49-32.4 194.34-29.35 196.19-26.3 196.34-21.75L196.34-21.75Q196.44-19.55 196.44-17.45 196.44-15.35 196.34-13.2L196.34-13.2Q196.19-8.6 194.39-5.53 192.59-2.45 189.36-0.98 186.14 0.5 181.69 0.5ZM181.69-5.25L181.69-5.25Q184.94-5.25 186.99-7.18 189.04-9.1 189.19-13.45L189.19-13.45Q189.29-15.65 189.29-17.53 189.29-19.4 189.19-21.55L189.19-21.55Q189.09-24.45 188.11-26.28 187.14-28.1 185.49-28.93 183.84-29.75 181.69-29.75L181.69-29.75Q179.59-29.75 177.94-28.93 176.29-28.1 175.31-26.28 174.34-24.45 174.24-21.55L174.24-21.55Q174.19-19.4 174.19-17.53 174.19-15.65 174.24-13.45L174.24-13.45Q174.39-9.1 176.44-7.18 178.49-5.25 181.69-5.25ZM225.89 0L204.19 0Q203.69 0 203.34-0.35 202.99-0.7 202.99-1.2L202.99-1.2 202.99-33.8Q202.99-34.3 203.34-34.65 203.69-35 204.19-35L204.19-35 208.84-35Q209.34-35 209.69-34.65 210.04-34.3 210.04-33.8L210.04-33.8 210.04-5.95 225.89-5.95Q226.44-5.95 226.79-5.6 227.14-5.25 227.14-4.7L227.14-4.7 227.14-1.2Q227.14-0.7 226.79-0.35 226.44 0 225.89 0L225.89 0ZM237.88 0L233.18 0Q232.68 0 232.33-0.35 231.98-0.7 231.98-1.2L231.98-1.2 231.98-33.8Q231.98-34.3 232.33-34.65 232.68-35 233.18-35L233.18-35 237.88-35Q238.43-35 238.76-34.65 239.08-34.3 239.08-33.8L239.08-33.8 239.08-1.2Q239.08-0.7 238.76-0.35 238.43 0 237.88 0L237.88 0ZM260.38 0.5L260.38 0.5Q255.93 0.5 252.73-0.98 249.53-2.45 247.73-5.53 245.93-8.6 245.78-13.2L245.78-13.2Q245.73-15.35 245.73-17.45 245.73-19.55 245.78-21.75L245.78-21.75Q245.93-26.3 247.78-29.35 249.63-32.4 252.86-33.95 256.08-35.5 260.38-35.5L260.38-35.5Q264.68-35.5 267.93-33.95 271.18-32.4 273.03-29.35 274.88-26.3 275.03-21.75L275.03-21.75Q275.13-19.55 275.13-17.45 275.13-15.35 275.03-13.2L275.03-13.2Q274.88-8.6 273.08-5.53 271.28-2.45 268.06-0.98 264.83 0.5 260.38 0.5ZM260.38-5.25L260.38-5.25Q263.63-5.25 265.68-7.18 267.73-9.1 267.88-13.45L267.88-13.45Q267.98-15.65 267.98-17.53 267.98-19.4 267.88-21.55L267.88-21.55Q267.78-24.45 266.81-26.28 265.83-28.1 264.18-28.93 262.53-29.75 260.38-29.75L260.38-29.75Q258.28-29.75 256.63-28.93 254.98-28.1 254.01-26.28 253.03-24.45 252.93-21.55L252.93-21.55Q252.88-19.4 252.88-17.53 252.88-15.65 252.93-13.45L252.93-13.45Q253.08-9.1 255.13-7.18 257.18-5.25 260.38-5.25Z" opacity="1" transform="matrix(1,0,0,1,0,0)" fill="#1f2d5a" class="wordmark-text-0" data-fill-palette-color="primary" id="text-0"></path>
                                                        </svg>
                                                    </g>
                                                </svg>
                                            </g>
                                        </svg>
                                    </g>
                                </svg>
                            </g>
                            <g transform="matrix(1,0,0,1,136.06986588268177,0)">
                                <svg viewBox="0 0 123.38026823463643 123.38026823463643" height="123.38026823463643" width="123.38026823463643">
                                    <g>
                                        <svg></svg>
                                    </g>
                                    <g id="icon-0">
                                        <svg viewBox="0 0 123.38026823463643 123.38026823463643" height="123.38026823463643" width="123.38026823463643">
                                            <g>
                                                <path d="M0 61.69c0-34.071 27.62-61.69 61.69-61.69 34.071 0 61.69 27.62 61.69 61.69 0 34.071-27.62 61.69-61.69 61.69-34.071 0-61.69-27.62-61.69-61.69zM61.69 118.646c31.456 0 56.956-25.5 56.956-56.956 0-31.456-25.5-56.956-56.956-56.956-31.456 0-56.956 25.5-56.956 56.956 0 31.456 25.5 56.956 56.956 56.956z" data-fill-palette-color="tertiary" fill="#f74c9e" stroke="transparent"></path>
                                            </g>
                                            <g transform="matrix(1,0,0,1,30.157898293340534,30.057927728786666)">
                                                <svg viewBox="0 0 63.064471647955365 63.2644127770631" height="63.2644127770631" width="63.064471647955365">
                                                    <g>
                                                        <svg xmlns="http://www.w3.org/2000/svg"
                                                            xmlns:xlink="http://www.w3.org/1999/xlink" version="1.1" x="0" y="0" viewBox="0.46217065677691005 0.47500000000000003 46.87638198264127 47.025" style="enable-background:new 0 0 48 48;" xml:space="preserve" height="63.2644127770631" width="63.064471647955365" class="icon-z$-0" data-fill-palette-color="accent" id="z$-0">
                                                            <g fill="#06cc75" data-fill-palette-color="accent">
                                                                <path class="" d="M25.3 33.4v2.4c0.7-0.2 1-0.6 1-1.2 0-0.3-0.1-0.5-0.2-0.7C25.9 33.7 25.6 33.5 25.3 33.4z" fill="#06cc75" data-fill-palette-color="accent"></path>
                                                                <path class="" d="M22.3 28.5c0 0.5 0.3 0.9 0.8 1.2v-2.3C22.6 27.6 22.3 28 22.3 28.5z" fill="#06cc75" data-fill-palette-color="accent"></path>
                                                                <path class="" d="M46.9 20.9L25.3 1c-0.7-0.7-1.9-0.7-2.7 0L1.1 20.9c-0.6 0.5-0.8 1.4-0.5 2.2s1 1.2 1.8 1.2h6.2v19.5c0 2.1 1.7 3.7 3.7 3.7h23.1c2.1 0 3.7-1.7 3.7-3.7V24.3h6.2c0.8 0 1.5-0.5 1.8-1.2S47.5 21.4 46.9 20.9zM28.3 37.2c-0.8 0.7-1.8 1.2-3 1.3v1.4h-2.1v-1.4c-1.7-0.3-3.2-1-4.6-2.3l1.8-2.2c1 0.9 1.9 1.5 2.8 1.7v-2.9c-1.4-0.4-2.4-0.8-3-1.4-0.6-0.6-1-1.4-1-2.6 0-1.1 0.4-2 1.1-2.8 0.7-0.7 1.7-1.2 2.9-1.3v-1h2.1v1c1.3 0.2 2.6 0.7 3.9 1.6l-1.6 2.3c-0.8-0.6-1.6-1-2.3-1.2v2.8c1.4 0.4 2.5 0.9 3.1 1.5 0.7 0.6 1 1.5 1 2.6C29.4 35.5 29 36.5 28.3 37.2z" fill="#06cc75" data-fill-palette-color="accent"></path>
                                                            </g>
                                                        </svg>
                                                    </g>
                                                </svg>
                                            </g>
                                        </svg>
                                    </g>
                                </svg>
                            </g>
                            <g></g>
                        </svg>
                    </g>
                    <defs></defs>
                </svg>
                <rect width="395.52" height="200.65790925008343" fill="none" stroke="none" visibility="hidden"></rect>
            </g>
        </svg>
    </g>
</svg>